<svg xmlns="http://www.w3.org/2000/svg" width="370.3097" height="176.4251" preserveAspectRatio="none" viewBox="86.175 353.4353 370.3097 176.4251">
  <svg width="170.3425" height="56.4251" x="186.1586" y="353.4353" preserveAspectRatio="none" viewBox="19.99928093 73.50025177 160.00134277 52.99974823">
    <path fill="#c7bee5" d="M21.505 81.157c-.482 1.295-.625 5.298-.912 13.303-.336 9.393-.505 14.09 0 15.597 3.734 11.151 37.341 5.868 79.345 6.881 37.615.907 68.708 6.544 72.505-3.67.198-.533.135-4.186 0-11.468-.216-11.654-.326-17.49-.456-17.891-3.66-11.329-36.271-7.816-77.977-8.716-37.413-.807-68.476-4.87-72.505 5.964z" data-color="1"/>
    <path d="M151.952 119.582c-6.757 0-14.855-.488-23.889-1.032-8.517-.513-18.169-1.094-28.132-1.334-12.185-.294-23.729-.056-33.914.153-12.473.257-23.244.478-31.151-.357-8.654-.915-13.273-3.096-14.535-6.866-.521-1.555-.352-6.281-.014-15.696.288-8.028.432-12.053.929-13.391 1.52-4.089 6.803-6.371 16.624-7.183 8.9-.736 20.684-.257 34.328.297 6.994.284 14.227.578 21.817.742 9.644.208 18.987.18 27.231.154 13.951-.043 26.002-.08 34.851.985 9.684 1.165 14.816 3.634 16.152 7.768.138.426.228 4.951.469 17.971.151 8.157.193 11.006-.017 11.571-1.796 4.833-9.367 6.217-20.749 6.218zm-64.056-3.059c3.925 0 7.95.039 12.049.138 9.972.241 19.63.822 28.151 1.335 24.017 1.446 41.369 2.491 44.088-4.824.184-.494.104-4.819-.017-11.366-.193-10.446-.321-17.347-.443-17.814-2.75-8.512-22.767-8.451-50.474-8.366-8.246.025-17.593.054-27.245-.155-7.596-.164-14.831-.458-21.828-.742-13.626-.554-25.394-1.032-34.26-.299-9.583.793-14.715 2.961-16.152 6.824-.466 1.253-.609 5.247-.894 13.206-.335 9.357-.503 14.049-.015 15.508 2.586 7.721 20.44 7.354 45.151 6.845 6.766-.139 14.132-.29 21.889-.29zM21.505 81.157h.002-.002z"/>
    <path fill="#df99bf" d="M25.005 84.716c-.482 1.295-.625 5.298-.912 13.303-.336 9.393-.505 14.09 0 15.597 3.734 11.151 37.341 5.868 79.345 6.881 37.615.907 68.708 6.544 72.505-3.67.198-.533.135-4.186 0-11.468-.216-11.654-.326-17.49-.456-17.891-3.66-11.329-36.271-7.816-77.977-8.716-37.414-.807-68.476-4.87-72.505 5.964z" data-color="2"/>
    <path d="M155.452 123.141c-6.757 0-14.855-.487-23.889-1.031-8.517-.513-18.169-1.094-28.132-1.334-12.184-.294-23.729-.056-33.914.153-12.473.257-23.244.478-31.151-.357-8.654-.915-13.273-3.096-14.535-6.866-.521-1.555-.352-6.281-.014-15.696.288-8.028.432-12.053.929-13.391 1.52-4.089 6.803-6.371 16.624-7.183 8.9-.736 20.684-.257 34.328.297 6.994.284 14.227.578 21.818.742 9.644.208 18.987.179 27.231.154 13.951-.043 26.001-.079 34.851.985 9.684 1.165 14.816 3.634 16.152 7.768.138.426.228 4.951.469 17.971.151 8.157.193 11.006-.017 11.571-1.797 4.833-9.368 6.217-20.75 6.217zm-64.056-3.059c3.925 0 7.95.039 12.048.138 9.972.241 19.63.822 28.151 1.335 24.017 1.446 41.369 2.49 44.088-4.824.184-.494.104-4.819-.017-11.366-.193-10.446-.321-17.347-.443-17.814-2.75-8.512-22.771-8.451-50.475-8.366-8.247.025-17.593.054-27.245-.155-7.596-.164-14.831-.458-21.828-.742-13.626-.554-25.393-1.032-34.26-.299-9.583.793-14.715 2.961-16.152 6.824-.466 1.253-.609 5.247-.894 13.206-.335 9.357-.503 14.049-.015 15.508 2.586 7.721 20.44 7.354 45.151 6.845 6.767-.138 14.134-.29 21.891-.29zM25.005 84.716h.002-.002z"/>
    <path fill="#480933" d="M28.661 88.075c-.482 1.295-.625 5.298-.912 13.303-.336 9.393-.505 14.09 0 15.597 3.734 11.151 37.341 5.868 79.345 6.881 37.615.907 68.708 6.544 72.505-3.67.198-.533.135-4.186 0-11.468-.216-11.654-.326-17.49-.456-17.891-3.66-11.329-36.271-7.816-77.977-8.716-37.413-.807-68.476-4.87-72.505 5.964z" data-color="3"/>
    <path d="M159.108 126.5c-6.757 0-14.855-.487-23.889-1.031-8.517-.513-18.169-1.094-28.132-1.334-12.185-.294-23.729-.056-33.914.153-12.473.257-23.244.478-31.151-.357-8.654-.915-13.273-3.096-14.535-6.866-.521-1.555-.352-6.281-.014-15.696.288-8.03.432-12.053.929-13.391 1.52-4.088 6.803-6.371 16.624-7.183 8.9-.736 20.684-.257 34.328.297 6.994.284 14.227.578 21.818.742 9.644.208 18.987.179 27.231.154 13.952-.043 26.001-.079 34.851.985 9.684 1.165 14.816 3.633 16.152 7.768.138.426.228 4.951.469 17.971.145 7.808.195 11-.017 11.571-1.797 4.833-9.368 6.217-20.75 6.217zm-64.056-3.059c3.925 0 7.95.039 12.049.138 9.972.241 19.63.822 28.151 1.335 24.016 1.446 41.368 2.491 44.088-4.824.184-.495.104-4.82-.017-11.366-.193-10.446-.321-17.347-.443-17.814-2.75-8.512-22.768-8.451-50.474-8.366-8.247.025-17.593.054-27.245-.155-7.596-.164-14.831-.458-21.828-.742-13.626-.554-25.394-1.032-34.26-.299-9.583.793-14.715 2.961-16.152 6.824-.466 1.252-.609 5.245-.894 13.201-.335 9.362-.503 14.054-.015 15.513 2.586 7.721 20.44 7.353 45.151 6.845 6.766-.138 14.132-.29 21.889-.29zM28.661 88.075h.002-.002z"/>
  </svg>
  <svg width="370.3097" height="90" x="86.175" y="439.8604" preserveAspectRatio="none" viewBox="-.4 -23.16 133.64 32.48">
    <path fill="#480933" d="M13.36-4.6q-.12 1.24-.82 2.26-.7 1.02-1.42 2.06-.44.36-1.26.62-.82.26-1.62.42-.8.16-1.38.24-.58.08-.5.08-.4 0-1.02-.14T4.14.66Q3.56.52 3.18.38T2.84.24Q2.48.2 1.92-.02T.86-.54q-.5-.3-.88-.64t-.38-.66q0-.32.16-.66t.44-.64q.28-.3.58-.48.3-.18.62-.18l2.76 1.04q.76.24 1.5.34.74.1 1.46.1.68 0 1.22-.26.54-.26.82-.62l.6-1.2q-.08-.72-.58-1.12-.5-.4-1.24-.68t-1.58-.52q-.84-.24-1.56-.64L3.08-8.44q-.84-1.08-.88-3.32.24-1.4 1.2-2.24.04-.04.52-.38.48-.34 1.48-.98.16 0 1.02-.08t2.38-.24q.68 0 3.32.96.52.52.52 1.44 0 .72-.34 1.22t-.98.5q-.68 0-1.5-.34t-1.54-.34q-1 0-1.82.18-.82.18-.82.82 0 .92.8 1.12 6.12 1.36 6.92 5.52Zm18.68 2.88q-.2.56-.8 1.12-.6.56-1.16.56-1.16 0-1.52-1.64-.36-1.64-.36-4.64v-.36q0-1.52-.22-2.22-.22-.7-.3-.9-.44-.96-1.36-.96-.56 0-1.16.22-.6.22-1.08.52-.48.3-.82.58-.34.28-.42.4-.08.28-.14.96-.06.68-.1 1.56-.04.88-.08 1.8t-.06 1.68q-.02.76-.02 1.2 0 .44.04.36Q22.36-.4 20.76-.4q-1.2 0-1.54-.76-.34-.76-.34-2.6 0-.48.02-.56.02-.08.06-.38.04-.3.12-1.1.08-.8.2-2.72.04-.8.08-1.46.04-.66 0-1.14v-.74q0-.3-.04-.5.04-.12.1-.76.06-.64.12-1.4.06-.76.14-1.44.08-.68.16-.92 0-.84.04-1.94t.28-2.06q.24-.96.74-1.62.5-.66 1.42-.66 1.56 0 1.56 2 0 1.12-.44 3.2-.08 1.08-.18 1.68-.1.6-.18 1.04-.08.44-.12.84-.04.4-.04 1.12 1-.84 1.92-.98.92-.14 1.72-.14 2 0 3.2 1.16 1.2 1.16 1.8 3.84.04.96.06 1.5.02.54.08 1.2.06.66.14 1.78.08 1.12.2 3.2Zm20.28-3q.72.48.72 1.16 0 .36-.2.74t-.52.68q-.32.3-.68.5-.36.2-.72.2-.32-.12-.76-.42t-.88-.68q-.44-.38-.82-.86-.38-.48-.58-.96l-.28.68q-.76 1.44-2.4 2.72-2 .36-2.32.36-.76 0-1.84-.24l-2.2-1.56Q37.4-3.76 37.4-6.12q0-.84.26-1.86t.76-2.06q.5-1.04 1.22-2.04t1.68-1.8q1.16-.44 2.24-.74 1.08-.3 1.64-.38.76-.84 1.8-.84.6 0 1.06.58.46.58.8 1.46t.54 1.94q.2 1.06.28 2.02l.52 2.12q.24 1 .78 1.72t1.34 1.28Zm-6.08-4.44q-.08-.04-.6-2.52h-.6q-.4 0-.94.22-.54.22-1.16.76-.62.54-1.18 1.62-.84 1.56-.84 3.12.68 1.32 2.12 2.08.44-.12.74-.28.3-.16.54-.44.24-.28.46-.7.22-.42.5-1.06.52-.92.74-1.62.22-.7.22-1.18Zm32.44-4.96q-.24.68-.54 1.76-.3 1.08-.62 2.52l-1.28 3.32q0 .12-.3.82t-.68 1.56q-.38.86-.76 1.64-.38.78-.54 1.06Q72.68-.04 71.2.32q-1.16-.6-2.18-2.38Q68-3.84 66.96-7.28l-.76 1.52q-.36.72-.98 1.56-.62.84-1.3 1.58-.68.74-1.32 1.26t-1.08.56q-.88-.52-1.92-1.86t-1.76-3.5q-.24-.76-.42-1.16-.18-.4-.34-.78-.16-.38-.34-.88-.18-.5-.42-1.46-.44-1.76-.44-2.44 0-.8.48-1.2.48-.4 1.16-.4.84 0 1.28.34.44.34.68.94.24.6.42 1.46t.5 1.86q.24.8.62 1.84t.9 2.32q.24-.48.58-1.08.34-.6.78-1.32.16-.12.46-.6.3-.48.56-1l.46-.92q.2-.4.16-.36 1.4-2.04 3.08-2.52.12.12.36.58.24.46.48 1t.48 1q.24.46.4.58.2.56.36 1.06.16.5.34 1.12.18.62.48 1.46t.78 2.08q.8-1.76.88-2.68.56-1.6.98-2.64.42-1.04.62-1.48.12-.64.3-1.42.18-.78.5-1.46.32-.68.76-1.14.44-.46 1.12-.46 1.28 0 1.84 1.8Zm10.28-4.72q.08.32.08.6 0 1.28-.76 2.16-1.2.48-2.4.48-.76-.48-1.26-1.1-.5-.62-.5-1.22 0-.52 1.2-2.56.52.08 1.1.12.58.04 1.08.2.5.16.88.46.38.3.58.86Zm-1.28 6.68v.96q0 .24-.08.44l-.32 1.8v.36q0 .24-.04.64t-.1.8q-.06.4-.1.76-.04.36-.04.6 0 .2.02.32t.02.32q0 .36-.08.78-.08.42-.08.94 0 .48.12 1-.44 1.8-1.84 1.8-1.96 0-1.96-3.68 0-1.24.12-2.46t.28-2.26q.16-1.04.34-1.82.18-.78.3-1.22.6-.88 1.68-.88 1.04 0 1.76.8Zm13.4-8.88q-.08 1-.46 2.26-.38 1.26-.54 2.06v.48q0 .56-.08 1.2-.08.64-.16 1.22t-.18 1.02q-.1.44-.1.6-.04.2-.04.96v2.52q0 .8-.08 1.4-.08.6-.2 1.08l.36 3q.16.44 1.08 1.32-.2.72-1.04 1.3-.84.58-1.72.58-1.2 0-1.82-1.14-.62-1.14-.62-3.82 0-.44.06-.76t.06-.8q0-.96-.24-2.4.2-.44.3-1.12.1-.68.14-1.3.04-.62.04-1.06v-.36q0 .04.1-.56.1-.6.22-1.42t.22-1.7q.1-.88.1-1.4v-.32l.68-3.36q.52-.88 1.8-.88 1.4 0 2.12 1.4Zm12.08 0q-.08 1-.46 2.26-.38 1.26-.54 2.06v.48q0 .56-.08 1.2-.08.64-.16 1.22t-.18 1.02q-.1.44-.1.6-.04.2-.04.96v2.52q0 .8-.08 1.4-.08.6-.2 1.08l.36 3q.16.44 1.08 1.32-.2.72-1.04 1.3-.84.58-1.72.58-1.2 0-1.82-1.14-.62-1.14-.62-3.82 0-.44.06-.76t.06-.8q0-.96-.24-2.4.2-.44.3-1.12.1-.68.14-1.3.04-.62.04-1.06v-.36q0 .04.1-.56.1-.6.22-1.42t.22-1.7q.1-.88.1-1.4v-.32l.68-3.36q.52-.88 1.8-.88 1.4 0 2.12 1.4Zm20.08 9.28q-.04.88-.08 1.24t-.22.78q-.18.42-.58 1.22-.4.8-1.12 2.56-.32 1.88-1.6 3.72Q129-.28 128.2.56q-.12.36-.56 1.12-.44.76-.94 1.62-.5.86-.96 1.68-.46.82-.66 1.26-.08.2-.36.7-.28.5-.66 1.02t-.88.94q-.5.42-.98.42-.72 0-1.34-.46-.62-.46-.62-1.1 0-.32.28-.82.28-.5.68-1.08.4-.58.84-1.2.44-.62.76-1.14.12-.32.44-.96.32-.64.7-1.34.38-.7.72-1.36.34-.66.46-1.02-.12-.08-.44-.42-.32-.34-.7-.72-.38-.38-.78-.74t-.72-.52q-.44-.64-.76-1t-.58-.6q-.26-.24-.54-.48t-.62-.68q-.34-.44-.84-1.16-.5-.72-1.18-1.92-.04-.12-.04-.36 0-.8.58-1.44.58-.64 1.22-.64.44 0 1 .42t1.28 1.5q.76 1.2 1.18 1.76.42.56.72.9.3.34.64.64t.98.98q.48.24 1.28 1.16l1.44-3.88q.44-1.04.9-2.14t.62-2.1q.88-.6 1.76-.6 1.48 0 1.72 1.44Z"/>
  </svg>
</svg>
